# xmcd
# Track frame offsets:
# 150
# 19679
# 38160
# 64004
# 82779
# 99427
# 118715
# 146315
# 162004
# 182101
# 221482
# 243603
# 270499
# 298005
#
# Disc length: 4221 seconds
# Revision: 0
# Processed by: cddbd v1.4PL0 Copyright (c) Steve Scherf et al.
# Submitted via: VisiTrax 2.9.5.181 - For more info visit www.synapsa.com
#
DISCID=ba107b0e
DTITLE=Gary B. B. Coleman - American Roots: Blues
DYEAR=2003
DGENRE=Blues
TTITLE0=I Wrote This Song For You
TTITLE1=Just Can't Lose These Blues
TTITLE2=I Fell In Love On A One-Night Stand
TTITLE3=I Gotta Play The Blues For You
TTITLE4=Dancin' My Blues Away
TTITLE5=Maybe Love Wasn't For Me
TTITLE6=Watch Where You Stroke
TTITLE7=If You Can Beat Me Rockin' ( You Can Have My Chair)
TTITLE8=I Won't Be Your Fool
TTITLE9=If You See My One-Eyed Woman
TTITLE10=Romance Without Finance ( Is A Nusiance)
TTITLE11=Food Stamp Annie
TTITLE12=Too Much Weekend
TTITLE13=Neckbone
EXTD=
EXTT0=
EXTT1=
EXTT2=
EXTT3=
EXTT4=
EXTT5=
EXTT6=
EXTT7=
EXTT8=
EXTT9=
EXTT10=
EXTT11=
EXTT12=
EXTT13=
PLAYORDER=
